<svg xmlns="http://www.w3.org/2000/svg" xmlns:xlink="http://www.w3.org/1999/xlink" width="500" zoomAndPan="magnify" viewBox="0 0 375 374.999991" height="500" preserveAspectRatio="xMidYMid meet" version="1.2"><defs><clipPath id="81468f42e5"><path d="M 27 159 L 97.476562 159 L 97.476562 230 L 27 230 Z M 27 159 "/></clipPath><clipPath id="6d48c82220"><path d="M 62 141.953125 L 83 141.953125 L 83 163 L 62 163 Z M 62 141.953125 "/></clipPath></defs><g id="6b61a4acd1"><path style=" stroke:none;fill-rule:nonzero;fill:#272727;fill-opacity:1;" d="M 16.378906 174.617188 C 16.957031 170.980469 18.4375 168.9375 19.878906 167.789062 C 20.71875 167.125 21.859375 168.0625 21.375 169.019531 C 18.933594 173.867188 20.339844 180.253906 22.972656 186.261719 C 20.03125 182.578125 17.527344 178.566406 16.378906 174.617188 "/><path style=" stroke:none;fill-rule:nonzero;fill:#272727;fill-opacity:1;" d="M 52.898438 201.734375 C 49.25 198.398438 38.917969 189.796875 38.769531 184.609375 C 38.625 179.425781 29.738281 185.628906 38.867188 197.484375 C 38.867188 197.484375 10.753906 185.644531 15.6875 165.351562 C 15.972656 164.1875 14.03125 163.84375 13.566406 164.949219 C 11.558594 169.730469 4.984375 182.519531 28.347656 203.917969 C 44.445312 218.660156 51.960938 220.015625 53.574219 232.773438 C 53.574219 232.773438 67.375 214.964844 52.898438 201.734375 "/><path style=" stroke:none;fill-rule:nonzero;fill:#272727;fill-opacity:1;" d="M 20.917969 174.703125 C 20.886719 178.238281 22.039062 182.152344 23.714844 185.953125 C 22.679688 181.355469 22.679688 176.890625 24.746094 173.425781 C 25.292969 172.503906 24.226562 171.488281 23.339844 172.09375 C 22.515625 172.660156 21.660156 173.488281 20.917969 174.703125 "/><g clip-rule="nonzero" clip-path="url(#81468f42e5)"><path style=" stroke:none;fill-rule:nonzero;fill:#fefdfd;fill-opacity:1;" d="M 87.773438 162.933594 C 79.144531 157.378906 66.484375 158.191406 51.925781 165.175781 C 41.332031 159.285156 27.953125 159.621094 27.953125 159.621094 C 47.820312 165.988281 51.992188 177.140625 51.992188 177.140625 C 62.515625 169.652344 76.367188 168.40625 81.988281 171.921875 C 97.074219 181.359375 78.667969 216.019531 60.054688 229.460938 C 86.175781 214.625 96.351562 195.851562 97.035156 182.695312 C 97.476562 174.207031 94.101562 167.007812 87.773438 162.933594 "/></g><g clip-rule="nonzero" clip-path="url(#6d48c82220)"><path style=" stroke:none;fill-rule:nonzero;fill:#fefdfd;fill-opacity:1;" d="M 82.625 152.03125 C 82.625 157.582031 78.121094 162.085938 72.570312 162.085938 C 67.015625 162.085938 62.515625 157.582031 62.515625 152.03125 C 62.515625 146.476562 67.015625 141.976562 72.570312 141.976562 C 78.121094 141.976562 82.625 146.476562 82.625 152.03125 "/></g><g style="fill:#ffffff;fill-opacity:1;"><g transform="translate(104.361503, 201.246049)"><path style="stroke:none" d="M 12.625 0.46875 C 11.007812 0.46875 9.507812 0.179688 8.125 -0.390625 C 6.738281 -0.972656 5.53125 -1.78125 4.5 -2.8125 C 3.476562 -3.851562 2.679688 -5.070312 2.109375 -6.46875 C 1.546875 -7.863281 1.265625 -9.375 1.265625 -11 C 1.265625 -12.632812 1.546875 -14.15625 2.109375 -15.5625 C 2.679688 -16.96875 3.476562 -18.191406 4.5 -19.234375 C 5.53125 -20.273438 6.738281 -21.082031 8.125 -21.65625 C 9.507812 -22.226562 11.007812 -22.515625 12.625 -22.515625 C 14.414062 -22.515625 16.054688 -22.144531 17.546875 -21.40625 C 19.035156 -20.675781 20.285156 -19.648438 21.296875 -18.328125 C 22.304688 -17.003906 22.976562 -15.472656 23.3125 -13.734375 L 18.515625 -13.734375 C 18.078125 -15.035156 17.332031 -16.066406 16.28125 -16.828125 C 15.226562 -17.597656 14.007812 -17.984375 12.625 -17.984375 C 11.382812 -17.984375 10.269531 -17.671875 9.28125 -17.046875 C 8.300781 -16.429688 7.519531 -15.597656 6.9375 -14.546875 C 6.363281 -13.503906 6.078125 -12.320312 6.078125 -11 C 6.078125 -9.675781 6.363281 -8.492188 6.9375 -7.453125 C 7.519531 -6.410156 8.300781 -5.582031 9.28125 -4.96875 C 10.269531 -4.363281 11.382812 -4.0625 12.625 -4.0625 C 14.082031 -4.0625 15.332031 -4.46875 16.375 -5.28125 C 17.425781 -6.101562 18.148438 -7.21875 18.546875 -8.625 L 23.375 -8.625 C 23.039062 -6.800781 22.375 -5.207031 21.375 -3.84375 C 20.375 -2.476562 19.125 -1.414062 17.625 -0.65625 C 16.125 0.09375 14.457031 0.46875 12.625 0.46875 Z M 12.625 0.46875 "/></g></g><g style="fill:#ffffff;fill-opacity:1;"><g transform="translate(126.851844, 201.246049)"><path style="stroke:none" d="M 16.09375 -17.046875 L 19.53125 -17.046875 L 19.53125 -0.03125 L 15.90625 -0.03125 L 15.53125 -1.546875 C 14.789062 -0.910156 13.953125 -0.414062 13.015625 -0.0625 C 12.085938 0.289062 11.085938 0.46875 10.015625 0.46875 C 8.316406 0.46875 6.796875 0.078125 5.453125 -0.703125 C 4.109375 -1.492188 3.046875 -2.566406 2.265625 -3.921875 C 1.492188 -5.273438 1.109375 -6.8125 1.109375 -8.53125 C 1.109375 -10.238281 1.492188 -11.769531 2.265625 -13.125 C 3.046875 -14.476562 4.109375 -15.539062 5.453125 -16.3125 C 6.796875 -17.09375 8.316406 -17.484375 10.015625 -17.484375 C 11.109375 -17.484375 12.125 -17.296875 13.0625 -16.921875 C 14.007812 -16.554688 14.851562 -16.050781 15.59375 -15.40625 Z M 10.390625 -3.875 C 11.273438 -3.875 12.066406 -4.070312 12.765625 -4.46875 C 13.472656 -4.875 14.023438 -5.425781 14.421875 -6.125 C 14.828125 -6.832031 15.03125 -7.632812 15.03125 -8.53125 C 15.03125 -9.414062 14.828125 -10.207031 14.421875 -10.90625 C 14.023438 -11.613281 13.472656 -12.171875 12.765625 -12.578125 C 12.066406 -12.992188 11.273438 -13.203125 10.390625 -13.203125 C 9.492188 -13.203125 8.695312 -12.992188 8 -12.578125 C 7.3125 -12.171875 6.765625 -11.613281 6.359375 -10.90625 C 5.960938 -10.207031 5.765625 -9.414062 5.765625 -8.53125 C 5.765625 -7.632812 5.960938 -6.835938 6.359375 -6.140625 C 6.765625 -5.453125 7.3125 -4.898438 8 -4.484375 C 8.695312 -4.078125 9.492188 -3.875 10.390625 -3.875 Z M 10.390625 -3.875 "/></g></g><g style="fill:#ffffff;fill-opacity:1;"><g transform="translate(146.790739, 201.246049)"><path style="stroke:none" d="M 10.90625 -17.109375 L 12.40625 -17.109375 L 12.40625 -12.75 L 10.421875 -12.75 C 9.117188 -12.75 8.1875 -12.445312 7.625 -11.84375 C 7.070312 -11.238281 6.796875 -10.238281 6.796875 -8.84375 L 6.796875 0 L 2.203125 0 L 2.203125 -17.015625 L 5.171875 -17.015625 L 5.984375 -14.9375 C 7.140625 -16.382812 8.78125 -17.109375 10.90625 -17.109375 Z M 10.90625 -17.109375 "/></g></g><g style="fill:#ffffff;fill-opacity:1;"><g transform="translate(157.815344, 201.246049)"><path style="stroke:none" d="M 14.703125 -23.15625 L 19.3125 -23.15625 L 19.3125 0 L 15.90625 0 L 15.375 -1.421875 C 14.65625 -0.804688 13.84375 -0.332031 12.9375 0 C 12.039062 0.332031 11.078125 0.5 10.046875 0.5 C 8.328125 0.5 6.789062 0.109375 5.4375 -0.671875 C 4.082031 -1.460938 3.019531 -2.535156 2.25 -3.890625 C 1.488281 -5.242188 1.109375 -6.78125 1.109375 -8.5 C 1.109375 -10.226562 1.488281 -11.769531 2.25 -13.125 C 3.019531 -14.476562 4.082031 -15.539062 5.4375 -16.3125 C 6.789062 -17.09375 8.328125 -17.484375 10.046875 -17.484375 C 10.910156 -17.484375 11.734375 -17.363281 12.515625 -17.125 C 13.304688 -16.882812 14.035156 -16.539062 14.703125 -16.09375 Z M 10.390625 -3.84375 C 11.296875 -3.84375 12.09375 -4.046875 12.78125 -4.453125 C 13.476562 -4.867188 14.03125 -5.425781 14.4375 -6.125 C 14.851562 -6.832031 15.0625 -7.625 15.0625 -8.5 C 15.0625 -9.382812 14.851562 -10.175781 14.4375 -10.875 C 14.03125 -11.582031 13.476562 -12.140625 12.78125 -12.546875 C 12.09375 -12.960938 11.296875 -13.171875 10.390625 -13.171875 C 9.515625 -13.171875 8.726562 -12.960938 8.03125 -12.546875 C 7.34375 -12.140625 6.789062 -11.582031 6.375 -10.875 C 5.96875 -10.175781 5.765625 -9.382812 5.765625 -8.5 C 5.765625 -7.625 5.96875 -6.832031 6.375 -6.125 C 6.789062 -5.425781 7.34375 -4.867188 8.03125 -4.453125 C 8.726562 -4.046875 9.515625 -3.84375 10.390625 -3.84375 Z M 10.390625 -3.84375 "/></g></g><g style="fill:#ffffff;fill-opacity:1;"><g transform="translate(177.533752, 201.246049)"><path style="stroke:none" d="M 2.203125 -19.28125 L 2.203125 -23.5625 L 6.796875 -23.5625 L 6.796875 -19.28125 Z M 2.203125 0 L 2.203125 -17.015625 L 6.796875 -17.015625 L 6.796875 0 Z M 2.203125 0 "/></g></g><g style="fill:#ffffff;fill-opacity:1;"><g transform="translate(184.74696, 201.246049)"><path style="stroke:none" d="M 10.296875 0.46875 C 8.535156 0.46875 6.960938 0.078125 5.578125 -0.703125 C 4.191406 -1.492188 3.097656 -2.566406 2.296875 -3.921875 C 1.503906 -5.273438 1.109375 -6.800781 1.109375 -8.5 C 1.109375 -10.226562 1.503906 -11.769531 2.296875 -13.125 C 3.097656 -14.476562 4.191406 -15.539062 5.578125 -16.3125 C 6.960938 -17.09375 8.535156 -17.484375 10.296875 -17.484375 C 12.046875 -17.484375 13.613281 -17.09375 15 -16.3125 C 16.382812 -15.539062 17.472656 -14.476562 18.265625 -13.125 C 19.066406 -11.769531 19.46875 -10.226562 19.46875 -8.5 C 19.46875 -6.800781 19.066406 -5.273438 18.265625 -3.921875 C 17.472656 -2.566406 16.382812 -1.492188 15 -0.703125 C 13.613281 0.078125 12.046875 0.46875 10.296875 0.46875 Z M 10.296875 -3.84375 C 11.617188 -3.84375 12.703125 -4.269531 13.546875 -5.125 C 14.390625 -5.988281 14.8125 -7.113281 14.8125 -8.5 C 14.8125 -9.882812 14.390625 -11.007812 13.546875 -11.875 C 12.703125 -12.738281 11.617188 -13.171875 10.296875 -13.171875 C 8.953125 -13.171875 7.859375 -12.738281 7.015625 -11.875 C 6.179688 -11.007812 5.765625 -9.882812 5.765625 -8.5 C 5.765625 -7.113281 6.179688 -5.988281 7.015625 -5.125 C 7.859375 -4.269531 8.953125 -3.84375 10.296875 -3.84375 Z M 10.296875 -3.84375 "/></g></g><g style="fill:#242424;fill-opacity:1;"><g transform="translate(207.05919, 201.246049)"><path style="stroke:none" d="M 17.203125 -22.046875 L 19.9375 -22.046875 L 19.9375 0 L 17.203125 0 L 17.203125 -10.015625 L 5.765625 -10.015625 L 5.765625 0 L 3.03125 0 L 3.03125 -22.046875 L 5.765625 -22.046875 L 5.765625 -12.65625 L 17.203125 -12.65625 Z M 17.203125 -22.046875 "/></g></g><g style="fill:#242424;fill-opacity:1;"><g transform="translate(228.226568, 201.246049)"><path style="stroke:none" d="M 10.359375 0.375 C 8.640625 0.375 7.101562 -0.0078125 5.75 -0.78125 C 4.394531 -1.5625 3.320312 -2.617188 2.53125 -3.953125 C 1.75 -5.285156 1.359375 -6.800781 1.359375 -8.5 C 1.359375 -10.207031 1.75 -11.734375 2.53125 -13.078125 C 3.320312 -14.421875 4.394531 -15.472656 5.75 -16.234375 C 7.101562 -17.003906 8.640625 -17.390625 10.359375 -17.390625 C 12.085938 -17.390625 13.632812 -17 15 -16.21875 C 16.363281 -15.445312 17.4375 -14.394531 18.21875 -13.0625 C 19.007812 -11.726562 19.40625 -10.207031 19.40625 -8.5 C 19.40625 -6.800781 19.007812 -5.285156 18.21875 -3.953125 C 17.4375 -2.617188 16.363281 -1.5625 15 -0.78125 C 13.632812 -0.0078125 12.085938 0.375 10.359375 0.375 Z M 10.359375 -2.203125 C 11.578125 -2.203125 12.660156 -2.472656 13.609375 -3.015625 C 14.554688 -3.566406 15.300781 -4.3125 15.84375 -5.25 C 16.382812 -6.195312 16.65625 -7.28125 16.65625 -8.5 C 16.65625 -9.71875 16.382812 -10.800781 15.84375 -11.75 C 15.300781 -12.695312 14.554688 -13.441406 13.609375 -13.984375 C 12.660156 -14.535156 11.578125 -14.8125 10.359375 -14.8125 C 9.140625 -14.8125 8.054688 -14.535156 7.109375 -13.984375 C 6.171875 -13.441406 5.429688 -12.695312 4.890625 -11.75 C 4.359375 -10.800781 4.09375 -9.71875 4.09375 -8.5 C 4.09375 -7.28125 4.359375 -6.195312 4.890625 -5.25 C 5.429688 -4.3125 6.175781 -3.566406 7.125 -3.015625 C 8.082031 -2.472656 9.160156 -2.203125 10.359375 -2.203125 Z M 10.359375 -2.203125 "/></g></g><g style="fill:#242424;fill-opacity:1;"><g transform="translate(247.188994, 201.246049)"><path style="stroke:none" d="M 21.484375 -17.390625 C 22.703125 -17.390625 23.753906 -17.109375 24.640625 -16.546875 C 25.535156 -15.992188 26.226562 -15.226562 26.71875 -14.25 C 27.21875 -13.269531 27.46875 -12.144531 27.46875 -10.875 L 27.46875 0 L 24.796875 0 L 24.796875 -10.046875 C 24.796875 -11.578125 24.457031 -12.773438 23.78125 -13.640625 C 23.113281 -14.503906 22.171875 -14.9375 20.953125 -14.9375 C 20.128906 -14.9375 19.367188 -14.691406 18.671875 -14.203125 C 17.984375 -13.722656 17.429688 -13.066406 17.015625 -12.234375 C 16.609375 -11.410156 16.40625 -10.472656 16.40625 -9.421875 L 16.40625 0 L 13.796875 0 L 13.796875 -10.046875 C 13.796875 -11.578125 13.453125 -12.773438 12.765625 -13.640625 C 12.085938 -14.503906 11.140625 -14.9375 9.921875 -14.9375 C 9.078125 -14.9375 8.3125 -14.691406 7.625 -14.203125 C 6.945312 -13.722656 6.40625 -13.066406 6 -12.234375 C 5.59375 -11.410156 5.390625 -10.472656 5.390625 -9.421875 L 5.390625 0 L 2.703125 0 L 2.703125 -17.015625 L 4.625 -17.015625 L 5.078125 -14.671875 C 5.722656 -15.515625 6.523438 -16.175781 7.484375 -16.65625 C 8.441406 -17.144531 9.453125 -17.390625 10.515625 -17.390625 C 11.710938 -17.390625 12.765625 -17.097656 13.671875 -16.515625 C 14.578125 -15.941406 15.257812 -15.148438 15.71875 -14.140625 C 16.363281 -15.148438 17.195312 -15.941406 18.21875 -16.515625 C 19.238281 -17.097656 20.328125 -17.390625 21.484375 -17.390625 Z M 21.484375 -17.390625 "/></g></g><g style="fill:#242424;fill-opacity:1;"><g transform="translate(275.317704, 201.246049)"><path style="stroke:none" d="M 18.609375 -8.4375 C 18.609375 -8.269531 18.597656 -8.109375 18.578125 -7.953125 C 18.554688 -7.796875 18.546875 -7.632812 18.546875 -7.46875 L 4.03125 -7.46875 C 4.238281 -5.894531 4.890625 -4.628906 5.984375 -3.671875 C 7.078125 -2.710938 8.421875 -2.234375 10.015625 -2.234375 C 11.191406 -2.234375 12.238281 -2.492188 13.15625 -3.015625 C 14.082031 -3.546875 14.8125 -4.273438 15.34375 -5.203125 L 18.140625 -5.203125 C 17.429688 -3.429688 16.359375 -2.054688 14.921875 -1.078125 C 13.492188 -0.109375 11.859375 0.375 10.015625 0.375 C 8.378906 0.375 6.90625 -0.0078125 5.59375 -0.78125 C 4.28125 -1.5625 3.242188 -2.625 2.484375 -3.96875 C 1.734375 -5.3125 1.359375 -6.820312 1.359375 -8.5 C 1.359375 -10.1875 1.734375 -11.703125 2.484375 -13.046875 C 3.242188 -14.390625 4.28125 -15.445312 5.59375 -16.21875 C 6.90625 -17 8.378906 -17.390625 10.015625 -17.390625 C 11.734375 -17.390625 13.238281 -16.988281 14.53125 -16.1875 C 15.820312 -15.394531 16.820312 -14.320312 17.53125 -12.96875 C 18.25 -11.613281 18.609375 -10.101562 18.609375 -8.4375 Z M 10.015625 -14.84375 C 8.484375 -14.84375 7.1875 -14.394531 6.125 -13.5 C 5.0625 -12.601562 4.382812 -11.421875 4.09375 -9.953125 L 15.90625 -9.953125 C 15.632812 -11.460938 14.960938 -12.65625 13.890625 -13.53125 C 12.816406 -14.40625 11.523438 -14.84375 10.015625 -14.84375 Z M 10.015625 -14.84375 "/></g></g><g style="fill:#ffffff;fill-opacity:1;"><g transform="translate(296.75978, 202.317966)"><path style="stroke:none" d="M 12.625 0.46875 C 11.007812 0.46875 9.507812 0.179688 8.125 -0.390625 C 6.738281 -0.972656 5.53125 -1.78125 4.5 -2.8125 C 3.476562 -3.851562 2.679688 -5.070312 2.109375 -6.46875 C 1.546875 -7.863281 1.265625 -9.375 1.265625 -11 C 1.265625 -12.632812 1.546875 -14.15625 2.109375 -15.5625 C 2.679688 -16.96875 3.476562 -18.191406 4.5 -19.234375 C 5.53125 -20.273438 6.738281 -21.082031 8.125 -21.65625 C 9.507812 -22.226562 11.007812 -22.515625 12.625 -22.515625 C 14.414062 -22.515625 16.054688 -22.144531 17.546875 -21.40625 C 19.035156 -20.675781 20.285156 -19.648438 21.296875 -18.328125 C 22.304688 -17.003906 22.976562 -15.472656 23.3125 -13.734375 L 18.515625 -13.734375 C 18.078125 -15.035156 17.332031 -16.066406 16.28125 -16.828125 C 15.226562 -17.597656 14.007812 -17.984375 12.625 -17.984375 C 11.382812 -17.984375 10.269531 -17.671875 9.28125 -17.046875 C 8.300781 -16.429688 7.519531 -15.597656 6.9375 -14.546875 C 6.363281 -13.503906 6.078125 -12.320312 6.078125 -11 C 6.078125 -9.675781 6.363281 -8.492188 6.9375 -7.453125 C 7.519531 -6.410156 8.300781 -5.582031 9.28125 -4.96875 C 10.269531 -4.363281 11.382812 -4.0625 12.625 -4.0625 C 14.082031 -4.0625 15.332031 -4.46875 16.375 -5.28125 C 17.425781 -6.101562 18.148438 -7.21875 18.546875 -8.625 L 23.375 -8.625 C 23.039062 -6.800781 22.375 -5.207031 21.375 -3.84375 C 20.375 -2.476562 19.125 -1.414062 17.625 -0.65625 C 16.125 0.09375 14.457031 0.46875 12.625 0.46875 Z M 12.625 0.46875 "/></g></g><g style="fill:#ffffff;fill-opacity:1;"><g transform="translate(319.250726, 202.317966)"><path style="stroke:none" d="M 16.09375 -17.046875 L 19.53125 -17.046875 L 19.53125 -0.03125 L 15.90625 -0.03125 L 15.53125 -1.546875 C 14.789062 -0.910156 13.953125 -0.414062 13.015625 -0.0625 C 12.085938 0.289062 11.085938 0.46875 10.015625 0.46875 C 8.316406 0.46875 6.796875 0.078125 5.453125 -0.703125 C 4.109375 -1.492188 3.046875 -2.566406 2.265625 -3.921875 C 1.492188 -5.273438 1.109375 -6.8125 1.109375 -8.53125 C 1.109375 -10.238281 1.492188 -11.769531 2.265625 -13.125 C 3.046875 -14.476562 4.109375 -15.539062 5.453125 -16.3125 C 6.796875 -17.09375 8.316406 -17.484375 10.015625 -17.484375 C 11.109375 -17.484375 12.125 -17.296875 13.0625 -16.921875 C 14.007812 -16.554688 14.851562 -16.050781 15.59375 -15.40625 Z M 10.390625 -3.875 C 11.273438 -3.875 12.066406 -4.070312 12.765625 -4.46875 C 13.472656 -4.875 14.023438 -5.425781 14.421875 -6.125 C 14.828125 -6.832031 15.03125 -7.632812 15.03125 -8.53125 C 15.03125 -9.414062 14.828125 -10.207031 14.421875 -10.90625 C 14.023438 -11.613281 13.472656 -12.171875 12.765625 -12.578125 C 12.066406 -12.992188 11.273438 -13.203125 10.390625 -13.203125 C 9.492188 -13.203125 8.695312 -12.992188 8 -12.578125 C 7.3125 -12.171875 6.765625 -11.613281 6.359375 -10.90625 C 5.960938 -10.207031 5.765625 -9.414062 5.765625 -8.53125 C 5.765625 -7.632812 5.960938 -6.835938 6.359375 -6.140625 C 6.765625 -5.453125 7.3125 -4.898438 8 -4.484375 C 8.695312 -4.078125 9.492188 -3.875 10.390625 -3.875 Z M 10.390625 -3.875 "/></g></g><g style="fill:#ffffff;fill-opacity:1;"><g transform="translate(339.190167, 202.317966)"><path style="stroke:none" d="M 10.90625 -17.109375 L 12.40625 -17.109375 L 12.40625 -12.75 L 10.421875 -12.75 C 9.117188 -12.75 8.1875 -12.445312 7.625 -11.84375 C 7.070312 -11.238281 6.796875 -10.238281 6.796875 -8.84375 L 6.796875 0 L 2.203125 0 L 2.203125 -17.015625 L 5.171875 -17.015625 L 5.984375 -14.9375 C 7.140625 -16.382812 8.78125 -17.109375 10.90625 -17.109375 Z M 10.90625 -17.109375 "/></g></g><g style="fill:#ffffff;fill-opacity:1;"><g transform="translate(350.215095, 202.317966)"><path style="stroke:none" d="M 18.71875 -8.5625 C 18.71875 -8.125 18.679688 -7.675781 18.609375 -7.21875 L 5.765625 -7.21875 C 5.953125 -6.0625 6.410156 -5.171875 7.140625 -4.546875 C 7.878906 -3.929688 8.804688 -3.625 9.921875 -3.625 C 10.722656 -3.625 11.4375 -3.796875 12.0625 -4.140625 C 12.695312 -4.484375 13.179688 -4.960938 13.515625 -5.578125 L 18.359375 -5.578125 C 17.734375 -3.722656 16.664062 -2.25 15.15625 -1.15625 C 13.644531 -0.0703125 11.898438 0.46875 9.921875 0.46875 C 8.242188 0.46875 6.738281 0.078125 5.40625 -0.703125 C 4.070312 -1.492188 3.019531 -2.566406 2.25 -3.921875 C 1.488281 -5.273438 1.109375 -6.800781 1.109375 -8.5 C 1.109375 -10.207031 1.488281 -11.738281 2.25 -13.09375 C 3.019531 -14.445312 4.070312 -15.515625 5.40625 -16.296875 C 6.738281 -17.085938 8.242188 -17.484375 9.921875 -17.484375 C 11.660156 -17.484375 13.191406 -17.078125 14.515625 -16.265625 C 15.835938 -15.460938 16.867188 -14.390625 17.609375 -13.046875 C 18.347656 -11.703125 18.71875 -10.207031 18.71875 -8.5625 Z M 9.921875 -13.578125 C 8.890625 -13.578125 8.019531 -13.289062 7.3125 -12.71875 C 6.613281 -12.15625 6.140625 -11.367188 5.890625 -10.359375 L 14.109375 -10.359375 C 13.441406 -12.503906 12.046875 -13.578125 9.921875 -13.578125 Z M 9.921875 -13.578125 "/></g></g></g></svg>